#!OML:ASF H:\Dans Jumps\Project 1\Capture day 1\Session 1\subject.ASF
:FULLY-SPECIFIED
:DEGREES
242
root 0.0328937 12.0445 -16.8102 22.9477 0.0537101 -1.3247
lowerback 44.6552 1.28911 -0.481396
upperback 9.36819 1.73479 3.00556
thorax -10.4271 0.709667 2.73145
lowerneck -22.5424 0.481326 -1.45342
upperneck 5.99104 1.33122 -2.22832
head 5.38792 0.432654 -0.341462
rclavicle -5.1684e-015 -1.25234e-014
rhumerus -70.3744 -23.3125 -34.7947
rradius 14.5263
rwrist 56.3761
rhand -15.5603 -21.8861
rfingers 7.12502
rthumb 10.6243 -51.5975
lclavicle -5.1684e-015 -1.25234e-014
lhumerus -54.6759 14.6696 64.7821
lradius 4.49081
lwrist -4.90318
lhand -22.3277 -3.22437
lfingers 7.12502
lthumb 4.09232 26.7161
rfemur -92.0511 -4.15009 20.9932
rtibia 102.587
rfoot -32.8806 -11.2152
rtoes -0.565675
lfemur -91.8031 5.20604 -23.1267
ltibia 102.206
lfoot -29.5725 17.1981
ltoes -3.41819
243
root 0.028476 12.068 -16.7739 23.1324 0.168961 -1.27579
lowerback 44.6119 1.28208 -0.488957
upperback 9.22967 1.73313 3.03029
thorax -10.5755 0.711859 2.76291
lowerneck -22.6251 0.455397 -1.46595
upperneck 6.07286 1.29986 -2.19361
head 5.42604 0.417947 -0.331623
rclavicle -5.1684e-015 -1.03368e-014
rhumerus -68.9752 -24.3653 -35.1946
rradius 14.4574
rwrist 56.8304
rhand -15.6835 -21.9373
rfingers 7.12502
rthumb 10.5054 -51.6547
lclavicle -5.1684e-015 -1.03368e-014
lhumerus -52.7991 15.2878 65.1185
lradius 4.27155
lwrist -5.83906
lhand -22.731 -3.5681
lfingers 7.12502
lthumb 3.70284 26.3795
rfemur -91.9327 -4.15929 20.9391
rtibia 102.475
rfoot -32.9946 -11.3368
rtoes -0.210479
lfemur -91.6951 5.09442 -23.1103
ltibia 102.038
lfoot -29.6501 17.2606
ltoes -3.54467
244
root 0.0243335 12.0958 -16.7348 23.3435 0.268566 -1.2209
lowerback 44.4917 1.2774 -0.500124
upperback 9.08688 1.73069 3.0419
thorax -10.7069 0.71441 2.78271
lowerneck -22.7059 0.421214 -1.47832
upperneck 6.17842 1.25676 -2.14985
head 5.47143 0.397917 -0.320189
rclavicle 3.97569e-015 -3.97569e-016
rhumerus -67.3845 -25.3915 -35.869
rradius 14.414
rwrist 57.1328
rhand -15.7894 -21.9526
rfingers 7.12502
rthumb 10.4033 -51.6752
lclavicle 3.97569e-015 -3.97569e-016
lhumerus -50.8179 15.9199 65.5056
lradius 4.11619
lwrist -6.78802
lhand -23.172 -3.91706
lfingers 7.12502
lthumb 3.27701 26.0375
rfemur -91.8033 -4.14646 20.8634
rtibia 102.325
rfoot -33.099 -11.4531
rtoes 0.158704
lfemur -91.5744 4.9831 -23.0991
ltibia 101.83
lfoot -29.7206 17.3198
ltoes -3.65696
245
root 0.0200922 12.128 -16.6934 23.5835 0.365656 -1.15456
lowerback 44.2937 1.27053 -0.511988
upperback 8.93765 1.72407 3.04375
thorax -10.8231 0.715819 2.7945
lowerneck -22.7841 0.382284 -1.47992
upperneck 6.30495 1.20597 -2.11756
head 5.52338 0.373208 -0.315014
rclavicle 7.95139e-016 -7.95139e-016
rhumerus -65.5777 -26.3395 -36.865
rradius 14.406
rwrist 57.2554
rhand -15.8731 -21.9265
rfingers 7.12502
rthumb 10.3226 -51.6532
lclavicle 7.95139e-016 -7.95139e-016
lhumerus -48.7518 16.5545 65.946
lradius 4.05052
lwrist -7.62235
lhand -23.6296 -4.22842
lfingers 7.12502
lthumb 2.83508 25.7325
rfemur -91.6684 -4.12294 20.7691
rtibia 102.136
rfoot -33.191 -11.579
rtoes 0.507243
lfemur -91.4448 4.86573 -23.0973
ltibia 101.579
lfoot -29.7828 17.3727
ltoes -3.76394
246
root 0.0159158 12.165 -16.6495 23.85 0.453543 -1.08458
lowerback 44.0185 1.26471 -0.525458
upperback 8.78419 1.71703 3.03964
thorax -10.9215 0.717545 2.80121
lowerneck -22.862 0.345581 -1.46054
upperneck 6.44613 1.15641 -2.11787
head 5.58051 0.346799 -0.323575
rclavicle -1.19271e-015 -8.15017e-015
rhumerus -63.5312 -27.1615 -38.2082
rradius 14.4447
rwrist 57.1797
rhand -15.95 -21.8714
rfingers 7.12502
rthumb 10.2484 -51.6017
lclavicle -1.19271e-015 -8.15017e-015
lhumerus -46.6131 17.1896 66.4428
lradius 4.08775
lwrist -8.21406
lhand -24.0509 -4.5079
lfingers 7.12502
lthumb 2.42815 25.458
rfemur -91.522 -4.08158 20.6628
rtibia 101.902
rfoot -33.2658 -11.7208
rtoes 0.819802
lfemur -91.3013 4.75134 -23.0996
ltibia 101.285
lfoot -29.8408 17.4185
ltoes -3.8606
247
root 0.0118429 12.2062 -16.6036 24.149 0.537241 -1.01213
lowerback 43.6554 1.2573 -0.539091
upperback 8.62908 1.70756 3.03332
thorax -10.9953 0.718611 2.80714
lowerneck -22.9366 0.316273 -1.4201
upperneck 6.59289 1.11563 -2.15755
head 5.6395 0.321942 -0.347271
rclavicle 3.97569e-015 1.17283e-014
rhumerus -61.2111 -27.7743 -39.9639
rradius 14.5537
rwrist 56.8141
rhand -16.042 -21.8071
rfingers 7.12502
rthumb 10.1597 -51.5418
lclavicle 3.97569e-015 1.17283e-014
lhumerus -44.413 17.8198 66.9949
lradius 4.24406
lwrist -8.48835
lhand -24.4022 -4.75996
lfingers 7.12502
lthumb 2.08892 25.2096
rfemur -91.3777 -4.03043 20.5511
rtibia 101.624
rfoot -33.3152 -11.8797
rtoes 1.07993
lfemur -91.1559 4.62948 -23.0992
ltibia 100.947
lfoot -29.8858 17.4636
ltoes -3.96186
248
root 0.00789741 12.2528 -16.5551 24.4633 0.618642 -0.940955
lowerback 43.2202 1.24864 -0.553203
upperback 8.47821 1.69627 3.0284
thorax -11.0414 0.719031 2.81606
lowerneck -23.0194 0.296535 -1.3596
upperneck 6.745 1.08687 -2.23409
head 5.702 0.300295 -0.384803
rclavicle -3.97569e-016 -1.09332e-014
rhumerus -58.6324 -28.1579 -42.0774
rradius 14.7414
rwrist 56.1357
rhand -16.1626 -21.7377
rfingers 7.12502
rthumb 10.0433 -51.4781
lclavicle -3.97569e-016 -1.09332e-014
lhumerus -42.1338 18.4458 67.6066
lradius 4.49176
lwrist -8.45527
lhand -24.6626 -5.01954
lfingers 7.12502
lthumb 1.83743 24.9523
rfemur -91.2055 -3.97542 20.4412
rtibia 101.293
rfoot -33.3412 -12.052
rtoes 1.27414
lfemur -90.9783 4.50039 -23.0869
ltibia 100.561
lfoot -29.9228 17.5069
ltoes -4.07044
249
root 0.00378149 12.3047 -16.5041 24.7904 0.712782 -0.870688
lowerback 42.7161 1.2324 -0.562789
upperback 8.33137 1.67841 3.02863
thorax -11.0599 0.716609 2.83152
lowerneck -23.1065 0.284528 -1.29024
upperneck 6.89774 1.06835 -2.3282
head 5.76565 0.28235 -0.428379
rclavicle -4.37326e-015 -1.51076e-014
rhumerus -55.8362 -28.3025 -44.4694
rradius 15.0134
rwrist 55.1506
rhand -16.3353 -21.6793
rfingers 7.12502
rthumb 9.87668 -51.4276
lclavicle -4.37326e-015 -1.51076e-014
lhumerus -39.7608 19.0696 68.2835
lradius 4.7876
lwrist -8.21328
lhand -24.7915 -5.31346
lfingers 7.12502
lthumb 1.71297 24.6594
rfemur -91.0017 -3.93161 20.34
rtibia 100.911
rfoot -33.348 -12.2197
rtoes 1.42957
lfemur -90.7687 4.35649 -23.0573
ltibia 100.123
lfoot -29.9467 17.5433
ltoes -4.20263
250
root -0.000138516 12.3619 -16.45 25.1189 0.812959 -0.805807
lowerback 42.1449 1.21131 -0.57088
upperback 8.19519 1.65549 3.03378
thorax -11.0427 0.71186 2.85414
lowerneck -23.1978 0.277237 -1.22678
upperneck 7.04697 1.05724 -2.41653
head 5.82882 0.268338 -0.468422
rclavicle 3.97569e-015 -1.35174e-014
rhumerus -52.8735 -28.2435 -47.0129
rradius 15.3576
rwrist 53.8854
rhand -16.5685 -21.626
rfingers 7.12502
rthumb 9.65172 -51.3849
lclavicle 3.97569e-015 -1.35174e-014
lhumerus -37.2817 19.6965 69.0321
lradius 5.09831
lwrist -7.93042
lhand -24.8285 -5.62808
lfingers 7.12502
lthumb 1.67716 24.3451
rfemur -90.7509 -3.90072 20.2503
rtibia 100.476
rfoot -33.3411 -12.3676
rtoes 1.54414
lfemur -90.5132 4.20895 -23.0114
ltibia 99.6348
lfoot -29.955 17.5692
ltoes -4.36221
251
root -0.00449043 12.4254 -16.3919 25.4181 0.938635 -0.738394
lowerback 41.5391 1.17884 -0.575067
upperback 8.07285 1.6208 3.04399
thorax -10.9946 0.701663 2.88551
lowerneck -23.3003 0.268297 -1.18019
upperneck 7.20243 1.04495 -2.4712
head 5.89537 0.255965 -0.495129
rclavicle -6.36111e-015 1.39149e-015
rhumerus -49.816 -28.0779 -49.547
rradius 15.741
rwrist 52.4736
rhand -16.8492 -21.5869
rfingers 7.12502
rthumb 9.38088 -51.3581
lclavicle -6.36111e-015 1.39149e-015
lhumerus -34.701 20.3199 69.8512
lradius 5.40359
lwrist -7.78811
lhand -24.8168 -5.9598
lfingers 7.12502
lthumb 1.68852 24.0133
rfemur -90.4041 -3.90234 20.1727
rtibia 99.9863
rfoot -33.3332 -12.496
rtoes 1.61599
lfemur -90.1656 4.05297 -22.9506
ltibia 99.0898
lfoot -29.9516 17.5771
ltoes -4.56187
252
root -0.00875985 12.4943 -16.3305 25.6977 1.06102 -0.681518
lowerback 40.8886 1.14663 -0.582322
upperback 7.95761 1.58388 3.05068
thorax -10.9199 0.69039 2.91576
lowerneck -23.4049 0.252999 -1.15604
upperneck 7.37147 1.02344 -2.4679
head 5.96601 0.243292 -0.50061
rclavicle -1.19271e-015 -1.23246e-014
rhumerus -46.723 -27.8832 -51.9717
rradius 16.1475
rwrist 51.0251
rhand -17.1946 -21.5823
rfingers 7.12502
rthumb 9.04755 -51.3683
lclavicle -1.19271e-015 -1.23246e-014
lhumerus -32.0758 20.9299 70.7233
lradius 5.73605
lwrist -7.91178
lhand -24.9623 -6.36312
lfingers 7.12502
lthumb 1.54802 23.611
rfemur -89.9848 -3.91277 20.1098
rtibia 99.4419
rfoot -33.3146 -12.5949
rtoes 1.63004
lfemur -89.7505 3.91948 -22.8806
ltibia 98.4958
lfoot -29.9272 17.5674
ltoes -4.81496
